<svg xmlns="http://www.w3.org/2000/svg" width="662" height="302" style="
        width:662px;
        height:302px;
        background: #FFF;
        fill: none;
">
        
        
        <svg xmlns="http://www.w3.org/2000/svg" class="role-diagram-draw-area"><g class="shapes-region" style="stroke: black; fill: none;"><g class="arrow-line"><path class="connection real" stroke-dasharray="" d="  M158.01,152.41 L95.5,152.41" style="stroke: rgb(65, 117, 5); stroke-width: 4px; fill: none;"/><g stroke="rgba(65,117,5,1)" transform="matrix(1,-2.4492935982947064e-16,2.4492935982947064e-16,1,90.5,152.4146065235046)" style="stroke: rgb(65, 117, 5); stroke-width: 4px;"><path d=" M20.77,-6.25 Q9.42,-0.85 0,0 Q9.42,0.86 20.77,6.25"/></g></g><g class="composite-shape"><path class="real" d=" M96.51,88.32 C96.51,52.92 124.05,24.23 158.01,24.23 C191.97,24.23 219.5,52.92 219.5,88.32 C219.5,123.72 191.97,152.41 158.01,152.41 C124.05,152.41 96.51,123.72 96.51,88.32 Z" style="stroke-width: 1px; stroke: rgb(0, 0, 0); fill: none; stroke-dasharray: 1.125px, 3.35px;"/></g><g class="composite-shape"><path class="real" d=" M440.24,200.95 C440.24,165.55 467.77,136.85 501.73,136.85 C535.69,136.85 563.22,165.55 563.22,200.95 C563.22,236.34 535.69,265.04 501.73,265.04 C467.77,265.04 440.24,236.34 440.24,200.95 Z" style="stroke-width: 1px; stroke: rgb(0, 0, 0); fill: none; stroke-dasharray: 1.125px, 3.35px;"/></g><g class="arrow-line"><path class="connection real" stroke-dasharray="" d="  M443.31,181.91 L427.91,243.07" style="stroke: rgb(208, 2, 27); stroke-width: 4px; fill: none;"/><g stroke="rgba(208,2,27,1)" transform="matrix(0.24412280216828985,-0.9697443258207299,0.9697443258207299,0.24412280216828985,426.6942989278776,247.92283220251295)" style="stroke: rgb(208, 2, 27); stroke-width: 4px;"><path d=" M20.77,-6.25 Q9.42,-0.85 0,0 Q9.42,0.86 20.77,6.25"/></g></g><g class="arrow-line"><path class="connection real" stroke-dasharray="1.125 3.35" d="  M158.01,88.32 L501.73,200.95" style="stroke: rgb(0, 0, 0); stroke-width: 1px; fill: none;"/></g><g class="composite-shape"><path class="real" d=" M160.23,151.9 C159.49,151.93 158.75,151.94 158.01,151.94 C124.3,151.94 96.97,123.46 96.97,88.32 C96.97,53.19 124.3,24.7 158.01,24.7 C169.87,24.7 180.94,28.23 190.31,34.33 L158.01,88.32 Z" style="stroke-width: 3px; fill: none; stroke: none;"/><path class="real" d=" M160.23,151.9 C159.49,151.93 158.75,151.94 158.01,151.94 C124.3,151.94 96.97,123.46 96.97,88.32 C96.97,53.19 124.3,24.7 158.01,24.7 C169.87,24.7 180.94,28.23 190.31,34.33" style="stroke-width: 3px; stroke: rgb(65, 117, 5); fill: none;"/></g><g class="composite-shape"><path class="real" d=" M443.31,181.91 C451.08,155.99 474.3,137.17 501.73,137.17 C535.52,137.17 562.92,165.72 562.92,200.95 C562.92,236.17 535.52,264.72 501.73,264.72 C487.8,264.72 474.96,259.87 464.67,251.7 L501.73,200.95 Z" style="stroke-width: 3px; fill: none; stroke: none;"/><path class="real" d=" M443.31,181.91 C451.08,155.99 474.3,137.17 501.73,137.17 C535.52,137.17 562.92,165.72 562.92,200.95 C562.92,236.17 535.52,264.72 501.73,264.72 C487.8,264.72 474.96,259.87 464.67,251.7" style="stroke-width: 3px; stroke: rgb(208, 2, 27); fill: none;"/></g><g class="arrow-line"><path class="connection real" stroke-dasharray="6 6" d="  M158.01,88.32 L158.01,152.41" style="stroke: rgb(0, 0, 0); stroke-width: 1px; fill: none;"/></g><g class="arrow-line"><path class="connection real" stroke-dasharray="6 6" d="  M190.31,34.33 L158.01,88.32" style="stroke: rgb(0, 0, 0); stroke-width: 1px; fill: none;"/></g><g class="composite-shape"><path class="real" d=" M157.03,105.33 C148.46,104.8 141.66,97.39 141.66,88.32 C141.66,78.91 148.98,71.29 158.01,71.29 C160.79,71.29 163.41,72.01 165.71,73.29 L158.01,88.32 Z" style="stroke-width: 1px; fill: none; stroke: none;"/><path class="real" d=" M157.03,105.33 C148.46,104.8 141.66,97.39 141.66,88.32 C141.66,78.91 148.98,71.29 158.01,71.29 C160.79,71.29 163.41,72.01 165.71,73.29" style="stroke-width: 1px; stroke: rgb(0, 0, 0); fill: none;"/></g><g class="arrow-line"><path class="connection real" stroke-dasharray="6 6" d="  M443.31,181.91 L501.73,200.95" style="stroke: rgb(0, 0, 0); stroke-width: 1px; fill: none;"/></g><g class="arrow-line"><path class="connection real" stroke-dasharray="6 6" d="  M501.73,200.95 L464.67,251.7" style="stroke: rgb(0, 0, 0); stroke-width: 1px; fill: none;"/></g><g class="composite-shape"><path class="real" d=" M486.04,196.16 C488.02,189.08 494.3,183.91 501.73,183.91 C510.75,183.91 518.07,191.54 518.07,200.95 C518.07,210.36 510.75,217.98 501.73,217.98 C498.16,217.98 494.86,216.79 492.17,214.77 L501.73,200.95 Z" style="stroke-width: 1px; fill: none; stroke: none;"/><path class="real" d=" M486.04,196.16 C488.02,189.08 494.3,183.91 501.73,183.91 C510.75,183.91 518.07,191.54 518.07,200.95 C518.07,210.36 510.75,217.98 501.73,217.98 C498.16,217.98 494.86,216.79 492.17,214.77" style="stroke-width: 1px; stroke: rgb(0, 0, 0); fill: none;"/></g><g class="arrow-line"><path class="connection real" stroke-dasharray="" d="  M190.31,34.33 L464.67,251.7" style="stroke: rgb(0, 0, 0); stroke-width: 1px; fill: none;"/></g><g/></g><g/><g/><g/></svg>
        <svg xmlns="http://www.w3.org/2000/svg" width="660" height="300" style="width:660px;height:300px;font-family:Asana-Math, Asana;background:#FFF;"><g><g><g><g><g><g style="transform:matrix(1,0,0,1,202.265625,145.109375);"><path d="M45 284C45 90 152 -18 343 -18C439 -18 510 5 600 67L610 103L600 110C506 53 454 35 376 35C219 35 133 131 133 309C133 447 190 653 418 653C489 653 541 639 597 603L597 519L624 519C629 576 637 619 651 665C575 694 518 706 456 706C276 706 45 578 45 284Z" stroke="rgb(0, 0, 0)" stroke-width="8" fill="rgb(0, 0, 0)" style="transform:matrix(0.017,0,0,-0.017,0,0);"></path></g><g><g><g><g style="transform:matrix(1,0,0,1,214.4375,148.11874961853027);"><path d="M263 689C108 689 29 566 29 324C29 207 50 106 85 57C120 8 176 -20 238 -20C389 -20 465 110 465 366C465 585 400 689 263 689ZM245 654C342 654 381 556 381 316C381 103 343 15 251 15C154 15 113 116 113 360C113 571 150 654 245 654Z" stroke="rgb(0, 0, 0)" stroke-width="8" fill="rgb(0, 0, 0)" style="transform:matrix(0.011899999618530274,0,0,-0.011899999618530274,0,0);"></path></g></g></g></g></g></g></g></g></g><g><g><g><g><g><g style="transform:matrix(1,0,0,1,436.453125,146.078125);"><path d="M45 284C45 90 152 -18 343 -18C439 -18 510 5 600 67L610 103L600 110C506 53 454 35 376 35C219 35 133 131 133 309C133 447 190 653 418 653C489 653 541 639 597 603L597 519L624 519C629 576 637 619 651 665C575 694 518 706 456 706C276 706 45 578 45 284Z" stroke="rgb(0, 0, 0)" stroke-width="8" fill="rgb(0, 0, 0)" style="transform:matrix(0.017,0,0,-0.017,0,0);"></path></g><g><g><g><g style="transform:matrix(1,0,0,1,448.625,149.08749961853027);"><path d="M16 23L16 -3C203 -3 203 0 239 0C275 0 275 -3 468 -3L468 82C353 77 307 81 122 77L304 270C401 373 431 428 431 503C431 618 353 689 226 689C154 689 105 669 56 619L39 483L68 483L81 529C97 587 133 612 200 612C286 612 341 558 341 473C341 398 299 324 186 204Z" stroke="rgb(0, 0, 0)" stroke-width="8" fill="rgb(0, 0, 0)" style="transform:matrix(0.011899999618530274,0,0,-0.011899999618530274,0,0);"></path></g></g></g></g></g></g></g></g></g><g><g><text x="143.203125" y="162.6875" style="white-space:pre;stroke:none;fill:rgb(0, 0, 0);font-size:15px;font-family:Arial, Helvetica, sans-serif;font-weight:normal;font-style:normal;dominant-baseline:text-before-edge;text-decoration:none;">Start</text></g></g><g><g><text x="407.46875" y="182.84375" style="white-space:pre;stroke:none;fill:rgb(0, 0, 0);font-size:15px;font-family:Arial, Helvetica, sans-serif;font-weight:normal;font-style:normal;dominant-baseline:text-before-edge;text-decoration:none;">End</text></g></g><g><g><g><g><g><g style="transform:matrix(1,0,0,1,122.828125,85.5);"><path d="M459 205C459 301 389 358 298 360L298 369C391 400 475 479 476 581C477 644 445 680 381 680C154 680 114 463 89 289C62 101 36 -87 -8 -273L-8 -283C18 -274 43 -265 70 -259C76 -162 90 -66 104 29C239 -84 459 37 459 205ZM216 12C159 12 123 45 124 103C126 205 190 570 278 629C337 668 411 631 406 558C398 447 310 371 204 371C201 338 204 378 200 329C294 362 383 309 378 208C374 115 322 12 216 12Z" stroke="rgb(0, 0, 0)" stroke-width="8" fill="rgb(0, 0, 0)" style="transform:matrix(0.017,0,0,-0.017,0,0);"></path></g><g><g><g><g style="transform:matrix(1,0,0,1,132.03125,88.50937461853027);"><path d="M263 689C108 689 29 566 29 324C29 207 50 106 85 57C120 8 176 -20 238 -20C389 -20 465 110 465 366C465 585 400 689 263 689ZM245 654C342 654 381 556 381 316C381 103 343 15 251 15C154 15 113 116 113 360C113 571 150 654 245 654Z" stroke="rgb(0, 0, 0)" stroke-width="8" fill="rgb(0, 0, 0)" style="transform:matrix(0.011899999618530274,0,0,-0.011899999618530274,0,0);"></path></g></g></g></g></g></g></g></g></g><g><g><g><g><g><g style="transform:matrix(1,0,0,1,521.625,201.75);"><path d="M459 205C459 301 389 358 298 360L298 369C391 400 475 479 476 581C477 644 445 680 381 680C154 680 114 463 89 289C62 101 36 -87 -8 -273L-8 -283C18 -274 43 -265 70 -259C76 -162 90 -66 104 29C239 -84 459 37 459 205ZM216 12C159 12 123 45 124 103C126 205 190 570 278 629C337 668 411 631 406 558C398 447 310 371 204 371C201 338 204 378 200 329C294 362 383 309 378 208C374 115 322 12 216 12Z" stroke="rgb(0, 0, 0)" stroke-width="8" fill="rgb(0, 0, 0)" style="transform:matrix(0.017,0,0,-0.017,0,0);"></path></g><g><g><g><g style="transform:matrix(1,0,0,1,530.828125,204.75937461853027);"><path d="M16 23L16 -3C203 -3 203 0 239 0C275 0 275 -3 468 -3L468 82C353 77 307 81 122 77L304 270C401 373 431 428 431 503C431 618 353 689 226 689C154 689 105 669 56 619L39 483L68 483L81 529C97 587 133 612 200 612C286 612 341 558 341 473C341 398 299 324 186 204Z" stroke="rgb(0, 0, 0)" stroke-width="8" fill="rgb(0, 0, 0)" style="transform:matrix(0.011899999618530274,0,0,-0.011899999618530274,0,0);"></path></g></g></g></g></g></g></g></g></g><g><g><g><g><g><g style="transform:matrix(1,0,0,1,189,28);"><path d="M416 25L416 -3C464 -1 509 0 551 0C591 0 636 -1 684 -3L684 25L659 27C618 30 605 37 591 61L420 368L641 620C671 653 680 659 706 662L734 664L734 692L620 689C608 689 594 689 505 692L505 664L538 662C570 660 583 655 583 643C583 632 578 623 560 601L399 405L295 604C286 622 281 634 281 642C281 654 294 660 324 662L361 664L361 692L315 691C274 690 244 689 228 689C211 689 181 690 140 691L95 692L95 664L121 662C170 657 182 650 202 613L348 343L110 61C95 43 72 31 48 28L20 25L20 -3C69 -1 110 0 145 0C181 0 221 -1 264 -3L264 25L232 28C194 32 177 38 177 50C177 58 181 67 187 75L369 306L488 80C497 62 502 49 502 40C502 32 495 29 470 29L454 28Z" stroke="rgb(0, 0, 0)" stroke-width="8" fill="rgb(0, 0, 0)" style="transform:matrix(0.017,0,0,-0.017,0,0);"></path></g><g><g><g></g></g></g></g></g></g></g></g><g><g><g><g><g><g style="transform:matrix(1,0,0,1,322.5,166);"><path d="M567 55C567 39 552 30 524 28L480 25L480 -3C582 0 582 0 602 0C622 0 622 0 724 -3L724 25L698 28C651 35 650 35 642 80L555 705L509 705L136 112C100 56 82 40 48 32L28 27L28 -3C120 0 120 0 140 0C159 0 161 0 247 -3L247 25L195 28C179 29 164 38 164 47C164 55 171 69 190 102L292 277L538 277L563 89L563 86C563 84 567 69 567 55ZM496 601L533 313L317 313Z" stroke="rgb(0, 0, 0)" stroke-width="8" fill="rgb(0, 0, 0)" style="transform:matrix(0.017,0,0,-0.017,0,0);"></path></g></g></g></g></g></g><g><g><g><g><g><g style="transform:matrix(1,0,0,1,168.765625,89.109375);"><path d="M543 227C543 337 459 353 377 365C434 385 459 397 490 425C536 464 559 511 559 562C559 644 501 692 401 692C399 692 389 692 374 691L311 690C299 689 263 689 251 689C232 689 201 690 152 691L100 692L97 664L150 662C174 661 185 653 185 635C185 621 181 589 176 559L89 55C85 37 73 30 31 23L26 -3L63 -2C90 0 105 0 117 0C128 0 154 -1 180 -2L217 -3L237 -4C256 -5 269 -6 277 -6C392 -6 543 87 543 227ZM166 41L217 340L302 340C405 340 455 298 455 211C455 108 382 34 282 34C228 34 207 38 166 41ZM352 655C433 655 473 619 473 544C473 439 399 376 275 376L223 376L272 650C288 650 329 655 352 655Z" stroke="rgb(0, 0, 0)" stroke-width="8" fill="rgb(0, 0, 0)" style="transform:matrix(0.017,0,0,-0.017,0,0);"></path></g><g><g><g></g></g></g></g></g></g></g></g></svg>
</svg>
