<svg xmlns="http://www.w3.org/2000/svg" width="662" height="302" style="
        width:662px;
        height:302px;
        background: #FFF;
        fill: none;
">
        
        
        <svg xmlns="http://www.w3.org/2000/svg" class="role-diagram-draw-area"><g class="shapes-region" style="stroke: black; fill: none;"><g class="arrow-line"><path class="connection real" stroke-dasharray="" d="  M202.01,174.41 L139.5,174.41" style="stroke: rgb(65, 117, 5); stroke-width: 4px; fill: none;"/><g stroke="rgba(65,117,5,1)" transform="matrix(1,-2.4492935982947064e-16,2.4492935982947064e-16,1,134.5,174.4146065235046)" style="stroke: rgb(65, 117, 5); stroke-width: 4px;"><path d=" M20.77,-6.25 Q9.42,-0.85 0,0 Q9.42,0.86 20.77,6.25"/></g></g><g class="composite-shape"><path class="real" d=" M140.51,110.32 C140.51,74.92 168.05,46.23 202.01,46.23 C235.97,46.23 263.5,74.92 263.5,110.32 C263.5,145.72 235.97,174.41 202.01,174.41 C168.05,174.41 140.51,145.72 140.51,110.32 Z" style="stroke-width: 1px; stroke: rgb(0, 0, 0); fill: none; stroke-dasharray: 1.125px, 3.35px;"/></g><g class="composite-shape"><path class="real" d=" M364.67,197.46 C364.67,162.07 392.2,133.37 426.16,133.37 C460.12,133.37 487.65,162.07 487.65,197.46 C487.65,232.86 460.12,261.56 426.16,261.56 C392.2,261.56 364.67,232.86 364.67,197.46 Z" style="stroke-width: 1px; stroke: rgb(0, 0, 0); fill: none; stroke-dasharray: 1.125px, 3.35px;"/></g><g class="arrow-line"><path class="connection real" stroke-dasharray="" d="  M486.75,205.99 L471.35,267.15" style="stroke: rgb(208, 2, 27); stroke-width: 4px; fill: none;"/><g stroke="rgba(208,2,27,1)" transform="matrix(0.24412280216828985,-0.9697443258207299,0.9697443258207299,0.24412280216828985,470.1288343558282,272)" style="stroke: rgb(208, 2, 27); stroke-width: 4px;"><path d=" M20.77,-6.25 Q9.42,-0.85 0,0 Q9.42,0.86 20.77,6.25"/></g></g><g class="arrow-line"><path class="connection real" stroke-dasharray="1.125 3.35" d="  M202.01,110.32 L426.16,197.46" style="stroke: rgb(0, 0, 0); stroke-width: 1px; fill: none;"/></g><g class="arrow-line"><path class="connection real" stroke-dasharray="" d="  M221.74,49.73 L447.11,136.87" style="stroke: rgb(0, 0, 0); stroke-width: 3px; fill: none;"/></g><g class="composite-shape"><path class="real" d=" M204.23,173.9 C203.49,173.93 202.75,173.94 202.01,173.94 C168.3,173.94 140.97,145.46 140.97,110.32 C140.97,75.19 168.3,46.7 202.01,46.7 C209.01,46.7 215.73,47.93 222,50.19 L202.01,110.32 Z" style="stroke-width: 3px; fill: none; stroke: none;"/><path class="real" d=" M204.23,173.9 C203.49,173.93 202.75,173.94 202.01,173.94 C168.3,173.94 140.97,145.46 140.97,110.32 C140.97,75.19 168.3,46.7 202.01,46.7 C209.01,46.7 215.73,47.93 222,50.19" style="stroke-width: 3px; stroke: rgb(65, 117, 5); fill: none;"/></g><g class="composite-shape"><path class="real" d=" M446.56,137.11 C470.4,145.82 487.5,169.48 487.5,197.31 C487.5,200.12 487.33,202.89 486.99,205.61 L426.31,197.31 Z" style="stroke-width: 3px; fill: none; stroke: none;"/><path class="real" d=" M446.56,137.11 C470.4,145.82 487.5,169.48 487.5,197.31 C487.5,200.12 487.33,202.89 486.99,205.61" style="stroke-width: 3px; stroke: rgb(208, 2, 27); fill: none;"/></g><g class="arrow-line"><path class="connection real" stroke-dasharray="6 6" d="  M202.01,110.32 L202.01,174.41" style="stroke: rgb(0, 0, 0); stroke-width: 1px; fill: none;"/></g><g class="arrow-line"><path class="connection real" stroke-dasharray="6 6" d="  M221.74,49.73 L202.01,110.32" style="stroke: rgb(0, 0, 0); stroke-width: 1px; fill: none;"/></g><g class="composite-shape"><path class="real" d=" M201.03,127.33 C192.46,126.8 185.66,119.39 185.66,110.32 C185.66,100.91 192.98,93.29 202.01,93.29 C203.58,93.29 205.09,93.52 206.53,93.95 L202.01,110.32 Z" style="stroke-width: 1px; fill: none; stroke: none;"/><path class="real" d=" M201.03,127.33 C192.46,126.8 185.66,119.39 185.66,110.32 C185.66,100.91 192.98,93.29 202.01,93.29 C203.58,93.29 205.09,93.52 206.53,93.95" style="stroke-width: 1px; stroke: rgb(0, 0, 0); fill: none;"/></g><g class="arrow-line"><path class="connection real" stroke-dasharray="6 6" d="  M445.9,136.87 L426.16,197.46" style="stroke: rgb(0, 0, 0); stroke-width: 1px; fill: none;"/></g><g class="arrow-line"><path class="connection real" stroke-dasharray="6 6" d="  M426.16,197.46 L486.65,206.09" style="stroke: rgb(0, 0, 0); stroke-width: 1px; fill: none;"/></g><g class="composite-shape"><path class="real" d=" M431.74,181.44 C438.02,183.82 442.51,190.1 442.51,197.46 C442.51,198.13 442.47,198.79 442.4,199.44 L426.16,197.46 Z" style="stroke-width: 1px; fill: none; stroke: none;"/><path class="real" d=" M431.74,181.44 C438.02,183.82 442.51,190.1 442.51,197.46 C442.51,198.13 442.47,198.79 442.4,199.44" style="stroke-width: 1px; stroke: rgb(0, 0, 0); fill: none;"/></g><g class="arrow-line"><path class="connection real" stroke-dasharray="" d="  M325.92,84.8 L342.92,101.8" style="stroke: rgb(0, 0, 0); stroke-width: 1px; fill: none;"/></g><g class="arrow-line"><path class="connection real" stroke-dasharray="" d="  M305.58,145.39 L322.58,162.39" style="stroke: rgb(0, 0, 0); stroke-width: 1px; fill: none;"/></g><g/></g><g/><g/><g/></svg>
        <svg xmlns="http://www.w3.org/2000/svg" width="660" height="300" style="width:660px;height:300px;font-family:Asana-Math, Asana;background:#FFF;"><g><g><g><g><g><g style="transform:matrix(1,0,0,1,278.265625,102.453125);"><path d="M45 284C45 90 152 -18 343 -18C439 -18 510 5 600 67L610 103L600 110C506 53 454 35 376 35C219 35 133 131 133 309C133 447 190 653 418 653C489 653 541 639 597 603L597 519L624 519C629 576 637 619 651 665C575 694 518 706 456 706C276 706 45 578 45 284Z" stroke="rgb(0, 0, 0)" stroke-width="8" fill="rgb(0, 0, 0)" style="transform:matrix(0.017,0,0,-0.017,0,0);"></path></g><g><g><g><g style="transform:matrix(1,0,0,1,290.4375,105.46249961853027);"><path d="M263 689C108 689 29 566 29 324C29 207 50 106 85 57C120 8 176 -20 238 -20C389 -20 465 110 465 366C465 585 400 689 263 689ZM245 654C342 654 381 556 381 316C381 103 343 15 251 15C154 15 113 116 113 360C113 571 150 654 245 654Z" stroke="rgb(0, 0, 0)" stroke-width="8" fill="rgb(0, 0, 0)" style="transform:matrix(0.011899999618530274,0,0,-0.011899999618530274,0,0);"></path></g></g></g></g></g></g></g></g></g><g><g><g><g><g><g style="transform:matrix(1,0,0,1,359.453125,139.078125);"><path d="M45 284C45 90 152 -18 343 -18C439 -18 510 5 600 67L610 103L600 110C506 53 454 35 376 35C219 35 133 131 133 309C133 447 190 653 418 653C489 653 541 639 597 603L597 519L624 519C629 576 637 619 651 665C575 694 518 706 456 706C276 706 45 578 45 284Z" stroke="rgb(0, 0, 0)" stroke-width="8" fill="rgb(0, 0, 0)" style="transform:matrix(0.017,0,0,-0.017,0,0);"></path></g><g><g><g><g style="transform:matrix(1,0,0,1,371.625,142.08749961853027);"><path d="M16 23L16 -3C203 -3 203 0 239 0C275 0 275 -3 468 -3L468 82C353 77 307 81 122 77L304 270C401 373 431 428 431 503C431 618 353 689 226 689C154 689 105 669 56 619L39 483L68 483L81 529C97 587 133 612 200 612C286 612 341 558 341 473C341 398 299 324 186 204Z" stroke="rgb(0, 0, 0)" stroke-width="8" fill="rgb(0, 0, 0)" style="transform:matrix(0.011899999618530274,0,0,-0.011899999618530274,0,0);"></path></g></g></g></g></g></g></g></g></g><g><g><text x="187.203125" y="184.6875" style="white-space:pre;stroke:none;fill:rgb(0, 0, 0);font-size:15px;font-family:Arial, Helvetica, sans-serif;font-weight:normal;font-style:normal;dominant-baseline:text-before-edge;text-decoration:none;">Start</text></g></g><g><g><text x="497.46875" y="199.84375" style="white-space:pre;stroke:none;fill:rgb(0, 0, 0);font-size:15px;font-family:Arial, Helvetica, sans-serif;font-weight:normal;font-style:normal;dominant-baseline:text-before-edge;text-decoration:none;">End</text></g></g><g><g><g><g><g><g style="transform:matrix(1,0,0,1,166.828125,107.5);"><path d="M459 205C459 301 389 358 298 360L298 369C391 400 475 479 476 581C477 644 445 680 381 680C154 680 114 463 89 289C62 101 36 -87 -8 -273L-8 -283C18 -274 43 -265 70 -259C76 -162 90 -66 104 29C239 -84 459 37 459 205ZM216 12C159 12 123 45 124 103C126 205 190 570 278 629C337 668 411 631 406 558C398 447 310 371 204 371C201 338 204 378 200 329C294 362 383 309 378 208C374 115 322 12 216 12Z" stroke="rgb(0, 0, 0)" stroke-width="8" fill="rgb(0, 0, 0)" style="transform:matrix(0.017,0,0,-0.017,0,0);"></path></g><g><g><g><g style="transform:matrix(1,0,0,1,176.03125,110.50937461853027);"><path d="M263 689C108 689 29 566 29 324C29 207 50 106 85 57C120 8 176 -20 238 -20C389 -20 465 110 465 366C465 585 400 689 263 689ZM245 654C342 654 381 556 381 316C381 103 343 15 251 15C154 15 113 116 113 360C113 571 150 654 245 654Z" stroke="rgb(0, 0, 0)" stroke-width="8" fill="rgb(0, 0, 0)" style="transform:matrix(0.011899999618530274,0,0,-0.011899999618530274,0,0);"></path></g></g></g></g></g></g></g></g></g><g><g><g><g><g><g style="transform:matrix(1,0,0,1,457.625,180.75);"><path d="M459 205C459 301 389 358 298 360L298 369C391 400 475 479 476 581C477 644 445 680 381 680C154 680 114 463 89 289C62 101 36 -87 -8 -273L-8 -283C18 -274 43 -265 70 -259C76 -162 90 -66 104 29C239 -84 459 37 459 205ZM216 12C159 12 123 45 124 103C126 205 190 570 278 629C337 668 411 631 406 558C398 447 310 371 204 371C201 338 204 378 200 329C294 362 383 309 378 208C374 115 322 12 216 12Z" stroke="rgb(0, 0, 0)" stroke-width="8" fill="rgb(0, 0, 0)" style="transform:matrix(0.017,0,0,-0.017,0,0);"></path></g><g><g><g><g style="transform:matrix(1,0,0,1,466.828125,183.75937461853027);"><path d="M16 23L16 -3C203 -3 203 0 239 0C275 0 275 -3 468 -3L468 82C353 77 307 81 122 77L304 270C401 373 431 428 431 503C431 618 353 689 226 689C154 689 105 669 56 619L39 483L68 483L81 529C97 587 133 612 200 612C286 612 341 558 341 473C341 398 299 324 186 204Z" stroke="rgb(0, 0, 0)" stroke-width="8" fill="rgb(0, 0, 0)" style="transform:matrix(0.011899999618530274,0,0,-0.011899999618530274,0,0);"></path></g></g></g></g></g></g></g></g></g></svg>
</svg>
